<svg width="18" height="18" viewBox="0 0 18 18" fill="none" xmlns="http://www.w3.org/2000/svg">
<g id="Frame" clip-path="url(#clip0_1_647)">
<path id="Vector" d="M8.99996 0.872894C4.39579 0.872894 0.666626 4.60414 0.666626 9.20623C0.666626 12.8889 3.05413 16.0118 6.36454 17.1125C6.78121 17.191 6.93399 16.9333 6.93399 16.7118C6.93399 16.5139 6.92704 15.9896 6.92357 15.2951C4.60551 15.7979 4.11663 14.1771 4.11663 14.1771C3.73746 13.2153 3.18954 12.9583 3.18954 12.9583C2.43468 12.4416 3.24788 12.4521 3.24788 12.4521C4.08468 12.5104 4.52426 13.3104 4.52426 13.3104C5.26732 14.5847 6.47496 14.2166 6.95135 14.0034C7.02635 13.4646 7.24093 13.0972 7.47913 12.8889C5.62843 12.6805 3.68329 11.9639 3.68329 8.77081C3.68329 7.86109 4.00621 7.11803 4.54093 6.5347C4.44718 6.32428 4.16593 5.47706 4.61385 4.32914C4.61385 4.32914 5.31176 4.10553 6.90551 5.18331C7.57218 4.99789 8.28051 4.90623 8.98885 4.90206C9.69718 4.90623 10.4055 4.99789 11.0722 5.18331C12.6555 4.10553 13.3534 4.32914 13.3534 4.32914C13.8013 5.47706 13.5201 6.32428 13.4368 6.5347C13.968 7.11803 14.2909 7.86109 14.2909 8.77081C14.2909 11.9722 12.343 12.6771 10.4888 12.8819C10.7805 13.1319 11.0513 13.643 11.0513 14.4236C11.0513 15.5389 11.0409 16.4347 11.0409 16.7055C11.0409 16.9243 11.1868 17.1847 11.6138 17.1014C14.9479 16.0083 17.3333 12.8833 17.3333 9.20623C17.3333 4.60414 13.602 0.872894 8.99996 0.872894Z" fill="#64748B"/>
</g>
<defs>
<clipPath id="clip0_1_647">
<rect width="16.6667" height="16.6667" fill="white" transform="translate(0.666626 0.666668)"/>
</clipPath>
</defs>
</svg>
